<?xml version="1.0" standalone="no"?>
<!DOCTYPE svg PUBLIC "-//W3C//DTD SVG 20010904//EN"
 "http://www.w3.org/TR/2001/REC-SVG-20010904/DTD/svg10.dtd">
<svg version="1.0" xmlns="http://www.w3.org/2000/svg"
 width="404.000000pt" height="316.000000pt" viewBox="0 0 404.000000 316.000000"
 preserveAspectRatio="xMidYMid meet">
<metadata>
Created by potrace 1.16, written by Peter Selinger 2001-2019
</metadata>
<g transform="translate(0.000000,316.000000) scale(0.100000,-0.100000)"
fill="#000000" stroke="none">
<path d="M625 2383 c-80 -18 -149 -49 -191 -86 -57 -50 -83 -105 -84 -174 0
-47 4 -58 35 -92 60 -66 155 -87 248 -55 31 10 51 12 64 6 27 -14 213 -14 230
-1 10 9 20 9 36 1 13 -6 80 -10 170 -9 145 2 147 2 147 -20 0 -12 12 -31 26
-42 l25 -20 -33 -17 c-18 -9 -42 -25 -54 -35 -20 -19 -22 -19 -85 10 -152 69
-334 74 -518 15 -93 -31 -199 -110 -258 -192 -130 -182 -144 -434 -36 -628 65
-117 209 -220 358 -258 153 -38 336 -25 458 33 l60 29 43 -33 c63 -49 122 -57
352 -53 177 3 201 6 239 25 l42 21 43 -22 c32 -16 61 -21 113 -20 75 0 119 17
167 61 l26 25 39 -30 c102 -81 245 -79 335 5 l26 25 39 -30 c44 -36 111 -62
157 -62 51 0 132 28 166 57 l32 26 53 -26 c30 -14 91 -34 136 -43 135 -27 251
-5 361 69 121 81 182 201 182 357 0 104 -25 176 -86 245 l-41 46 27 52 c61
122 13 258 -115 323 -133 67 -350 46 -480 -47 -12 -9 -21 -6 -41 14 -97 97
-270 94 -365 -5 -17 -18 -70 -96 -117 -173 -47 -77 -89 -147 -94 -155 -6 -8
-12 -13 -14 -10 -3 3 -52 81 -109 174 -112 184 -143 215 -229 236 -54 13 -126
3 -181 -26 -28 -14 -34 -14 -63 0 -64 30 -135 38 -320 34 l-182 -3 34 65 c20
36 41 74 49 85 17 25 17 69 -1 84 -8 6 -43 13 -79 14 -36 2 -71 8 -78 14 -16
13 -169 10 -190 -3 -8 -4 -4 5 9 20 27 35 28 58 4 79 -24 21 -46 21 -83 0 -26
-16 -29 -16 -47 0 -37 34 -94 11 -94 -37 0 -15 -5 -25 -12 -23 -6 2 -11 24
-11 50 0 30 -7 55 -21 74 -34 46 -142 74 -219 56z m140 -47 c18 -8 41 -26 50
-40 16 -25 16 -28 -6 -73 -32 -64 -95 -103 -178 -110 -73 -7 -111 12 -111 55
0 64 67 120 156 130 58 6 67 -15 9 -24 -61 -9 -109 -42 -113 -78 -4 -35 10
-46 63 -46 86 0 182 80 155 130 -36 67 -202 45 -282 -37 -52 -53 -73 -107 -57
-145 35 -84 184 -76 285 15 47 41 75 57 103 57 26 0 26 -15 1 -65 -11 -22 -20
-45 -20 -52 0 -26 20 -12 40 28 12 22 36 49 55 60 30 18 33 23 24 45 -19 51
-4 71 27 39 20 -19 54 -19 82 1 37 26 45 5 12 -33 -31 -35 -31 -35 -11 -50 12
-8 21 -21 21 -29 0 -20 14 -18 35 6 21 23 45 26 45 7 0 -8 -9 -22 -20 -32 -24
-22 -29 -65 -5 -45 8 7 15 18 15 24 0 15 37 56 50 56 17 0 11 -26 -11 -54 -14
-18 -16 -26 -7 -26 15 1 42 35 52 68 7 22 36 32 36 12 0 -5 7 -10 15 -10 20 0
19 -6 -5 -40 -32 -45 -10 -44 37 2 48 47 63 46 38 -2 -9 -18 -14 -34 -12 -37
6 -5 57 48 57 59 0 5 7 8 15 8 22 0 19 -11 -27 -92 -50 -87 -46 -83 -55 -75
-4 4 1 23 10 43 17 35 17 35 -3 29 -13 -4 -22 -1 -26 9 -5 14 -8 14 -30 0 -29
-20 -59 -11 -49 14 18 43 17 57 -3 29 -29 -42 -52 -54 -102 -53 -42 1 -45 3
-45 29 1 35 -6 34 -33 -3 -29 -38 -59 -39 -68 -3 -7 24 2 58 31 126 5 12 3 17
-9 17 -9 0 -18 -12 -22 -27 -11 -53 -23 -84 -44 -113 -18 -26 -26 -29 -73 -28
-28 0 -58 5 -65 11 -9 7 -16 7 -24 -1 -19 -19 -56 -14 -63 7 -6 19 -8 19 -58
-5 -123 -57 -257 -1 -257 107 0 47 35 113 78 146 79 60 224 89 297 59z m1044
-561 c75 -38 94 -119 41 -178 -38 -43 -86 -57 -199 -57 l-91 0 0 -40 0 -40 65
0 c107 0 172 -42 181 -117 6 -47 -11 -80 -55 -110 -28 -19 -47 -23 -112 -23
l-79 0 0 -39 0 -39 118 -4 c128 -5 153 -13 182 -61 38 -61 18 -141 -43 -174
-28 -16 -60 -18 -232 -18 -181 0 -203 2 -232 20 -62 37 -63 44 -63 453 0 358
1 370 21 396 33 42 86 51 288 49 138 -2 189 -6 210 -18z m317 -3 c10 -6 64
-84 118 -174 55 -89 124 -203 154 -251 l54 -88 147 242 c105 173 157 249 181
266 46 31 116 32 155 1 53 -41 55 -58 55 -435 0 -382 -1 -392 -62 -436 -32
-24 -104 -28 -141 -8 -52 28 -62 56 -67 191 l-5 125 -80 -145 c-106 -190 -142
-216 -241 -171 -38 17 -48 31 -120 165 -44 80 -81 146 -84 146 -3 0 -4 -40 -2
-89 2 -49 -2 -108 -8 -131 -24 -89 -102 -128 -184 -91 -81 35 -81 35 -84 437
-3 293 -1 358 12 387 30 74 124 101 202 59z m-1092 2 c158 -41 231 -124 192
-217 -30 -73 -125 -98 -209 -56 -52 27 -159 36 -213 19 -91 -29 -147 -100
-147 -185 0 -65 23 -107 81 -152 48 -36 133 -58 191 -48 l38 6 5 67 c3 37 12
82 22 99 42 83 172 83 221 0 16 -26 21 -55 23 -158 l4 -126 -32 -36 c-82 -94
-315 -139 -474 -93 -182 53 -288 156 -331 321 -66 256 80 498 340 561 72 18
216 17 289 -2z m2462 -3 c57 -26 84 -64 84 -118 0 -93 -69 -137 -179 -113 -61
13 -81 9 -81 -15 0 -19 25 -31 85 -40 135 -19 242 -129 252 -259 17 -201 -122
-348 -327 -348 -129 0 -228 46 -277 129 -64 109 -7 216 114 216 42 0 44 -1
138 -77 46 -37 110 8 86 60 -6 15 -25 27 -53 35 -131 35 -151 44 -198 86 -34
31 -55 60 -69 99 -25 65 -26 103 -6 170 26 87 90 152 179 180 64 20 203 17
252 -5z"/>
</g>
</svg>
